<svg xmlns="http://www.w3.org/2000/svg" viewBox="0 0 37 32">
  <path d="M4.206 12.274c-1.254 0.17-2.377 0.912-3.124 2.063s-1.055 2.616-0.857 4.073c0.198 1.457 0.886 2.787 1.912 3.697s2.307 1.325 3.561 1.155c1.254-0.17 2.377-0.912 3.124-2.063s1.055-2.616 0.857-4.073c-0.198-1.457-0.886-2.787-1.912-3.697s-2.307-1.325-3.561-1.155zM30.991 8.636c-1.254 0.17-2.377 0.912-3.124 2.063s-1.055 2.616-0.857 4.073c0.198 1.457 0.886 2.787 1.912 3.697s2.307 1.325 3.561 1.155c1.254-0.17 2.377-0.912 3.124-2.063s1.055-2.616 0.857-4.073c-0.198-1.457-0.886-2.787-1.912-3.697s-2.307-1.325-3.561-1.155zM10.805 1.787c-0.621 0.084-1.216 0.31-1.752 0.664s-1.002 0.829-1.372 1.399-0.636 1.223-0.783 1.921c-0.147 0.699-0.172 1.43-0.074 2.151s0.317 1.419 0.645 2.054c0.328 0.634 0.759 1.193 1.267 1.643s1.084 0.784 1.695 0.983c0.611 0.198 1.245 0.257 1.866 0.172s1.216-0.31 1.752-0.664c0.536-0.354 1.002-0.829 1.372-1.399s0.636-1.223 0.783-1.921c0.147-0.699 0.172-1.43 0.074-2.151s-0.317-1.419-0.645-2.053c-0.328-0.634-0.758-1.193-1.267-1.643s-1.084-0.784-1.695-0.983c-0.611-0.198-1.245-0.257-1.866-0.172zM21.834 0.289c-0.621 0.084-1.216 0.31-1.752 0.664s-1.002 0.829-1.372 1.399c-0.37 0.57-0.636 1.223-0.783 1.921s-0.172 1.43-0.074 2.151 0.317 1.419 0.645 2.054c0.328 0.634 0.758 1.193 1.267 1.643s1.084 0.784 1.695 0.983c0.611 0.198 1.245 0.257 1.866 0.172s1.216-0.31 1.752-0.664c0.536-0.354 1.002-0.829 1.372-1.399s0.636-1.223 0.783-1.921c0.147-0.699 0.172-1.43 0.074-2.151s-0.317-1.419-0.645-2.053-0.758-1.193-1.267-1.643c-0.508-0.451-1.084-0.784-1.695-0.983s-1.245-0.257-1.866-0.172zM31.588 24.848c0.371 2.73-1.673 4.674-4.578 5.069-3.66 0.497-4.916-0.889-6.854-0.626-1.94 0.263-2.776 1.974-6.302 2.453-3.039 0.413-5.53-0.961-5.928-3.887-0.558-4.109 2.852-5.338 4.4-6.72 1.726-1.54 1.925-5.43 5.911-5.971 3.985-0.541 5.471 3.445 7.264 4.332 1.959 0.968 5.489 0.952 6.086 5.35z"/>
</svg>