<svg xmlns="http://www.w3.org/2000/svg" aria-hidden="true">
<defs>
<symbol id="icon-Logo" viewBox="0 0 193 32">
<path d="M7.933 3.992c0.526-0.309 1.314-0.603 2.366-0.881 1.082-0.278 2.165-0.417 3.247-0.417 1.546 0 2.907 0.232 4.082 0.695 1.206 0.433 1.979 1.128 2.319 2.086 0.557 1.607 1.16 3.477 1.809 5.61s1.299 4.343 1.948 6.63c0.649 2.256 1.283 4.497 1.902 6.723 0.619 2.195 1.16 4.142 1.624 5.842-0.371 0.433-0.928 0.773-1.67 1.020-0.742 0.278-1.624 0.417-2.644 0.417-0.742 0-1.376-0.062-1.902-0.185-0.495-0.124-0.912-0.309-1.253-0.556-0.309-0.247-0.572-0.572-0.789-0.974-0.186-0.402-0.356-0.866-0.51-1.391l-0.835-3.199h-8.397c-0.247 0.927-0.495 1.885-0.742 2.875s-0.495 1.947-0.742 2.875c-0.433 0.155-0.897 0.278-1.392 0.371-0.464 0.124-1.036 0.185-1.716 0.185-1.577 0-2.752-0.263-3.526-0.788-0.742-0.556-1.113-1.314-1.113-2.272 0-0.433 0.062-0.865 0.186-1.298s0.263-0.943 0.417-1.53c0.217-0.835 0.51-1.87 0.881-3.106 0.402-1.236 0.835-2.565 1.299-3.987 0.464-1.453 0.959-2.936 1.484-4.451s1.021-2.936 1.484-4.265c0.464-1.36 0.881-2.565 1.253-3.616 0.402-1.051 0.711-1.854 0.928-2.411zM13.499 9.973c-0.433 1.298-0.928 2.751-1.484 4.358-0.526 1.576-1.005 3.184-1.438 4.822h5.752c-0.433-1.669-0.881-3.292-1.345-4.868-0.433-1.607-0.835-3.044-1.206-4.312h-0.278z"></path>
<path d="M39.104 25.226c0.34 0.062 0.758 0.124 1.253 0.185 0.495 0.031 0.959 0.046 1.392 0.046 1.051 0 2.010-0.155 2.876-0.464 0.897-0.309 1.655-0.788 2.273-1.437 0.649-0.649 1.144-1.484 1.484-2.504 0.371-1.051 0.557-2.303 0.557-3.755 0-2.782-0.65-4.868-1.948-6.259-1.299-1.422-3.031-2.133-5.196-2.133-0.433 0-0.881 0.015-1.345 0.046-0.433 0.031-0.881 0.077-1.345 0.139v16.134zM41.702 31.995c-0.526 0-1.129-0.015-1.809-0.046s-1.392-0.093-2.134-0.186c-0.711-0.093-1.438-0.216-2.18-0.371-0.711-0.124-1.376-0.309-1.995-0.556-1.701-0.649-2.551-1.777-2.551-3.384v-21.651c0-0.649 0.17-1.144 0.51-1.484 0.371-0.371 0.866-0.665 1.484-0.881 1.33-0.433 2.737-0.711 4.221-0.835 1.484-0.155 2.814-0.232 3.989-0.232 2.412 0 4.593 0.294 6.541 0.881 1.979 0.587 3.665 1.499 5.056 2.735 1.423 1.205 2.521 2.735 3.294 4.59s1.16 4.049 1.16 6.583c0 2.473-0.371 4.636-1.113 6.491-0.742 1.824-1.809 3.369-3.201 4.636-1.361 1.236-3 2.164-4.917 2.782s-4.036 0.927-6.355 0.927z"></path>
<path d="M76.199-0.005c8.807 0 15.947 7.136 15.947 15.938s-7.14 15.937-15.947 15.937c-8.807-0-15.946-7.135-15.946-15.937s7.139-15.937 15.946-15.938zM76.696 15.271c-1.882-0.991-3.249 0.581-4.495 0.7-1.117 0.107-2.98-0.42-4.096 1.476-0.795 1.35-0.184 2.689 1.251 3.444 1.665 0.877 2.586 0.415 3.502 0.897 0.915 0.482 0.994 1.448 2.722 2.358 1.371 0.722 2.886 0.531 3.627-0.729 1.195-2.029-0.318-3.102-0.836-4.107-0.474-0.92 0.206-3.049-1.675-4.040zM84.298 16.429c-0.592-0.312-1.317-0.343-2.015-0.088s-1.313 0.776-1.709 1.448c-0.396 0.672-0.54 1.441-0.402 2.136s0.549 1.262 1.14 1.574c0.592 0.312 1.317 0.344 2.015 0.089s1.313-0.776 1.709-1.448c0.396-0.672 0.54-1.441 0.402-2.137s-0.549-1.262-1.14-1.574zM82.171 9.868c-0.346-0.015-0.702 0.042-1.048 0.168s-0.675 0.319-0.968 0.567c-0.293 0.248-0.545 0.548-0.741 0.881s-0.333 0.693-0.402 1.060c-0.069 0.366-0.069 0.732-0.001 1.077s0.205 0.661 0.4 0.931c0.196 0.27 0.448 0.489 0.741 0.643s0.622 0.242 0.967 0.257c0.346 0.015 0.702-0.042 1.048-0.168s0.675-0.319 0.968-0.567c0.293-0.248 0.545-0.548 0.741-0.881s0.333-0.693 0.402-1.059c0.069-0.367 0.069-0.733 0.001-1.077s-0.205-0.661-0.4-0.931c-0.196-0.27-0.448-0.488-0.741-0.643s-0.622-0.242-0.967-0.257zM71.653 9.767c-0.592-0.312-1.317-0.344-2.015-0.089s-1.313 0.776-1.709 1.448c-0.396 0.672-0.541 1.441-0.402 2.137s0.549 1.262 1.141 1.573c0.592 0.312 1.316 0.343 2.015 0.089s1.313-0.776 1.709-1.448c0.396-0.672 0.54-1.441 0.402-2.136s-0.549-1.262-1.14-1.574zM76.964 7.124c-0.346-0.015-0.702 0.042-1.048 0.168s-0.675 0.319-0.968 0.568c-0.293 0.248-0.545 0.547-0.741 0.88s-0.333 0.693-0.402 1.060c-0.069 0.367-0.069 0.733-0.001 1.077s0.205 0.661 0.4 0.931c0.196 0.27 0.448 0.488 0.741 0.643s0.622 0.242 0.967 0.257c0.346 0.015 0.701-0.042 1.047-0.169s0.675-0.319 0.968-0.567c0.293-0.248 0.545-0.548 0.741-0.881s0.333-0.693 0.402-1.059c0.069-0.367 0.069-0.733 0.001-1.077s-0.205-0.661-0.401-0.931c-0.196-0.27-0.447-0.488-0.74-0.643s-0.622-0.242-0.967-0.257z"></path>
<path d="M107.024 16.185c1.3 0 2.289-0.294 2.969-0.881 0.712-0.618 1.068-1.545 1.068-2.782 0-1.175-0.372-2.071-1.114-2.689-0.711-0.649-1.763-0.974-3.155-0.974-0.494 0-0.912 0.015-1.252 0.046-0.309 0-0.634 0.031-0.974 0.093v7.186h2.459zM104.612 31.068c-0.34 0.093-0.882 0.185-1.624 0.278-0.711 0.093-1.422 0.139-2.134 0.139s-1.345-0.062-1.901-0.185c-0.526-0.093-0.974-0.278-1.346-0.556s-0.649-0.665-0.835-1.159c-0.186-0.494-0.278-1.144-0.278-1.947v-21.837c0-0.649 0.17-1.144 0.51-1.484 0.371-0.371 0.866-0.665 1.484-0.881 1.052-0.371 2.242-0.634 3.572-0.788 1.361-0.185 2.722-0.278 4.083-0.278 4.268 0 7.531 0.912 9.788 2.735s3.386 4.296 3.386 7.418c0 1.514-0.247 2.89-0.742 4.126-0.464 1.205-1.175 2.256-2.133 3.153-0.928 0.865-2.119 1.545-3.572 2.040-1.422 0.464-3.077 0.695-4.964 0.695h-3.293v8.531z"></path>
<path d="M122.332 9.648c-0.217-0.34-0.418-0.804-0.604-1.391s-0.278-1.205-0.278-1.854c0-1.205 0.263-2.071 0.788-2.596 0.556-0.525 1.268-0.788 2.134-0.788h20.226c0.217 0.34 0.418 0.804 0.603 1.391s0.279 1.205 0.279 1.854c0 1.205-0.279 2.071-0.836 2.596-0.525 0.525-1.221 0.788-2.087 0.788h-5.149v21.419c-0.34 0.093-0.882 0.185-1.624 0.278-0.711 0.093-1.422 0.139-2.133 0.139s-1.346-0.062-1.902-0.185c-0.526-0.093-0.974-0.278-1.346-0.556s-0.649-0.665-0.835-1.159c-0.186-0.494-0.278-1.144-0.278-1.947v-17.989h-6.958z"></path>
<path d="M153.722 31.392c-1.33 0-2.381-0.386-3.155-1.159s-1.16-1.824-1.16-3.153v-23.969c0.34-0.062 0.882-0.139 1.624-0.232 0.742-0.124 1.453-0.185 2.133-0.185 0.712 0 1.33 0.062 1.856 0.185 0.556 0.093 1.020 0.278 1.392 0.556s0.649 0.665 0.835 1.159 0.278 1.144 0.278 1.947v18.313h10.623c0.217 0.34 0.418 0.804 0.604 1.391 0.185 0.556 0.278 1.144 0.278 1.762 0 1.236-0.263 2.117-0.788 2.643-0.526 0.494-1.222 0.742-2.088 0.742h-12.432z"></path>
<path d="M184.817 31.068c-0.34 0.093-0.866 0.185-1.577 0.278s-1.407 0.139-2.088 0.139c-1.422 0-2.489-0.232-3.201-0.695-0.711-0.494-1.067-1.514-1.067-3.060v-6.259c-0.773-1.144-1.608-2.411-2.505-3.802s-1.779-2.813-2.644-4.265c-0.866-1.453-1.67-2.874-2.412-4.265-0.742-1.422-1.345-2.72-1.809-3.894 0.402-0.556 0.943-1.066 1.624-1.53 0.711-0.464 1.577-0.695 2.597-0.695 1.206 0 2.18 0.247 2.923 0.742 0.773 0.495 1.5 1.422 2.18 2.782l3.85 7.743h0.279c0.433-0.958 0.804-1.824 1.113-2.596 0.34-0.804 0.665-1.592 0.974-2.364 0.309-0.804 0.634-1.623 0.974-2.457 0.34-0.865 0.727-1.854 1.16-2.967 0.556-0.278 1.175-0.495 1.855-0.649s1.33-0.232 1.948-0.232c1.083 0 1.995 0.294 2.737 0.881 0.773 0.556 1.16 1.406 1.16 2.55 0 0.371-0.077 0.819-0.232 1.345s-0.51 1.329-1.067 2.411c-0.557 1.051-1.377 2.488-2.459 4.312-1.052 1.824-2.49 4.203-4.315 7.14v9.412z"></path>
</symbol>
<symbol id="icon-up" viewBox="0 0 28 32">
<path d="M15.705 29.637c0 0.942-0.763 1.705-1.705 1.705s-1.705-0.763-1.705-1.705h3.411zM12.794 1.147c0.666-0.666 1.746-0.666 2.412 0l10.852 10.852c0.666 0.666 0.666 1.746 0 2.412s-1.746 0.666-2.412 0l-9.646-9.646-9.646 9.646c-0.666 0.666-1.746 0.666-2.412 0s-0.666-1.746 0-2.412l10.852-10.852zM14 29.637h-1.705v-27.284h3.411v27.284h-1.705z"></path>
</symbol>
<symbol id="icon-tiktok" viewBox="0 0 32 32">
<path d="M16.314 11.728c-0.029 11.709 0.009 10.779-0.482 11.771-0.433 0.876-1.085 1.526-1.96 1.954-0.735 0.359-1.132 0.45-1.964 0.449-0.812-0.001-1.22-0.092-1.906-0.427-0.874-0.426-1.575-1.121-1.993-1.976-0.338-0.693-0.429-1.092-0.43-1.893-0.001-0.83 0.090-1.213 0.468-1.979 0.228-0.461 0.35-0.625 0.794-1.063 0.573-0.566 1.094-0.88 1.854-1.116 0.557-0.173 1.474-0.214 2.051-0.092 0.238 0.050 0.466 0.092 0.505 0.092 0.057 0 0.072-0.519 0.072-2.405v-2.405l-0.274-0.046c-0.151-0.025-0.69-0.044-1.199-0.042-1.486 0.007-2.656 0.269-3.942 0.883-5.073 2.421-6.792 8.551-3.698 13.18 0.535 0.8 1.689 1.953 2.47 2.469 2.412 1.592 5.323 2.004 8.088 1.145 2.477-0.77 4.692-2.783 5.688-5.17 0.258-0.619 0.455-1.299 0.584-2.018 0.095-0.529 0.102-1.020 0.088-6.323-0.008-3.162 0.003-5.749 0.025-5.749s0.135 0.074 0.251 0.165c0.652 0.51 1.965 1.208 2.968 1.579 1.122 0.414 2.719 0.723 3.744 0.723h0.519l-0.030-4.731-0.558-0.036c-1.772-0.115-3.38-0.848-4.706-2.143-1.29-1.26-2.047-2.881-2.192-4.688l-0.040-0.502h-4.766l-0.026 10.395z"></path>
</symbol>
<symbol id="icon-facebook" viewBox="0 0 32 32">
<path d="M18.525 1.385c-1.732 0.26-2.948 0.823-3.946 1.826-0.84 0.845-1.364 1.836-1.661 3.14-0.112 0.493-0.126 0.79-0.15 3.111l-0.026 2.566h-4.743v5.217l4.721 0.030 0.015 6.695 0.015 6.695h5.653v-13.419h2.346c1.29 0 2.347-0.007 2.348-0.014 0.158-1.044 0.693-5.131 0.676-5.161-0.013-0.024-1.229-0.043-2.701-0.043h-2.677l0.020-2.136c0.020-2.089 0.024-2.144 0.163-2.476 0.282-0.673 0.874-1.070 1.759-1.179 0.243-0.030 1.166-0.055 2.051-0.056l1.61-0.002-0.016-2.337-0.016-2.337-0.782-0.068c-1.282-0.111-4.063-0.143-4.661-0.053z"></path>
</symbol>
<symbol id="icon-instagram" viewBox="0 0 32 32">
<path d="M7.637 1.417c-1.641 0.245-2.936 0.9-4.129 2.089-1.215 1.21-1.888 2.58-2.109 4.294-0.087 0.67-0.087 15.725 0 16.395 0.222 1.713 0.891 3.075 2.111 4.295s2.582 1.89 4.294 2.111c0.67 0.087 15.723 0.087 16.393 0 1.712-0.222 3.074-0.891 4.294-2.111s1.889-2.582 2.111-4.295c0.087-0.67 0.087-15.724 0-16.395-0.222-1.714-0.895-3.084-2.109-4.294-1.228-1.223-2.585-1.89-4.296-2.112-0.734-0.095-15.91-0.074-16.559 0.023zM24.745 6.437c1.24 0.59 1.371 2.34 0.233 3.105-0.409 0.275-0.668 0.345-1.152 0.314-0.664-0.043-1.198-0.393-1.514-0.99-0.131-0.248-0.152-0.356-0.153-0.802-0.001-0.605 0.115-0.904 0.5-1.29 0.292-0.292 0.496-0.403 0.902-0.491 0.423-0.092 0.759-0.048 1.184 0.154zM17.175 10.020c1.85 0.351 3.434 1.556 4.281 3.257 0.441 0.886 0.627 1.693 0.627 2.721 0 1.616-0.556 3.028-1.643 4.175-1.195 1.261-2.701 1.908-4.439 1.908-2.948 0-5.372-1.988-5.986-4.909-0.128-0.609-0.128-1.74 0-2.349 0.25-1.19 0.75-2.161 1.547-3.001 0.506-0.534 0.934-0.864 1.533-1.181 1.318-0.699 2.627-0.898 4.081-0.622z"></path>
</symbol>
<symbol id="icon-menu" viewBox="0 0 48 32">
<path d="M3.174 5.17h41.653c1.379 0 2.499-1.12 2.499-2.499s-1.12-2.499-2.499-2.499h-41.653c-1.38 0-2.499 1.12-2.499 2.499s1.12 2.499 2.499 2.499zM44.826 13.501h-41.653c-1.38 0-2.499 1.12-2.499 2.499s1.12 2.499 2.499 2.499h41.653c1.379 0 2.499-1.12 2.499-2.499s-1.12-2.499-2.499-2.499zM44.826 26.83h-41.653c-1.38 0-2.499 1.12-2.499 2.499s1.12 2.499 2.499 2.499h41.653c1.379 0 2.499-1.119 2.499-2.499s-1.12-2.499-2.499-2.499z"></path>
</symbol>
<symbol id="icon-close" viewBox="0 0 37 32">
<path d="M3.951 0c-0.559 0-1.105 0.159-1.569 0.457s-0.823 0.721-1.034 1.215c-0.21 0.494-0.261 1.036-0.146 1.558s0.39 0.999 0.791 1.37l12.32 11.75-11.569 11.038c-0.27 0.247-0.485 0.543-0.633 0.87s-0.227 0.679-0.23 1.036c-0.004 0.356 0.067 0.71 0.208 1.040s0.35 0.63 0.614 0.882c0.264 0.252 0.579 0.451 0.925 0.586s0.717 0.202 1.090 0.199c0.374-0.003 0.743-0.078 1.086-0.22s0.653-0.347 0.912-0.604l11.574-11.034 11.526 10.992c0.259 0.257 0.569 0.462 0.912 0.604s0.712 0.216 1.086 0.22c0.374 0.004 0.744-0.064 1.090-0.199s0.66-0.334 0.925-0.586c0.264-0.252 0.473-0.552 0.614-0.882s0.212-0.684 0.208-1.040c-0.004-0.356-0.082-0.709-0.23-1.036s-0.364-0.623-0.633-0.87l-11.53-10.996 12.307-11.733c0.27-0.247 0.485-0.543 0.633-0.87s0.227-0.679 0.23-1.036c0.004-0.356-0.067-0.71-0.208-1.040s-0.35-0.63-0.614-0.882c-0.264-0.252-0.578-0.451-0.925-0.586s-0.717-0.202-1.090-0.199c-0.373 0.004-0.743 0.078-1.086 0.22s-0.653 0.347-0.912 0.604l-12.302 11.737-12.324-11.754c-0.262-0.257-0.575-0.461-0.921-0.601s-0.718-0.211-1.094-0.211z"></path>
</symbol>
</defs>
</svg>